<?xml version="1.0" encoding="UTF-8"?><svg id="Layer_2" xmlns="http://www.w3.org/2000/svg" viewBox="0 0 28.1 27.31"><defs><style>.cls-1{fill:#fff;}</style></defs><g id="logos"><g><path class="cls-1" d="M27.5,10.48C25.05,.19,13.52-3.09,5.95,3.2,3.43,5.54,1.69,8.86,1.25,9.98c-3.58,8.55,.7,13.52,10.94,16.61,10.24,3.08,18.2-3.98,15.31-16.11Zm-10.11-2.1h4.01v.34h-4.01v-.34Zm-6.57-1.48h.36v1.65c0,.19,.05,.33,.14,.43,.09,.1,.23,.15,.4,.15s.31-.05,.4-.15c.09-.1,.14-.25,.14-.43v-1.65h.36v1.64c0,.2-.04,.37-.11,.52-.07,.14-.17,.25-.31,.33-.14,.07-.3,.11-.49,.11s-.35-.04-.49-.11c-.13-.07-.24-.18-.31-.33-.07-.14-.11-.31-.11-.52v-1.64Zm-1.55,1.64c-.05-.05-.11-.09-.18-.12-.07-.03-.17-.05-.28-.07,0,0,0,0-.01,0s0,0-.01,0h-.03c-.17-.03-.31-.07-.42-.1s-.2-.1-.28-.2-.11-.24-.11-.42h0c0-.16,.04-.3,.11-.41,.07-.11,.17-.2,.31-.26s.3-.09,.49-.09c.09,0,.18,0,.27,.03s.18,.05,.26,.09c.09,.04,.17,.09,.25,.15l-.2,.29c-.1-.07-.19-.13-.29-.16-.1-.04-.19-.05-.29-.05-.18,0-.31,.03-.41,.1-.1,.07-.15,.17-.15,.3h0c0,.09,.02,.16,.07,.21,.05,.05,.11,.09,.19,.11,.07,.02,.18,.05,.31,.07,0,0,0,0,.01,0s0,0,.01,0c0,0,.01,0,.02,0,0,0,.01,0,.02,0,.16,.03,.28,.07,.39,.11,.1,.04,.19,.11,.26,.21,.07,.1,.1,.23,.1,.4h0c0,.16-.04,.29-.11,.4-.07,.11-.18,.2-.32,.25-.14,.06-.31,.09-.51,.09-.12,0-.24-.01-.35-.04-.11-.02-.21-.06-.31-.11-.1-.05-.19-.11-.27-.18l.22-.27c.1,.08,.2,.15,.32,.19,.12,.04,.24,.06,.38,.06,.19,0,.33-.03,.43-.1,.1-.07,.15-.17,.15-.29h0c0-.09-.02-.16-.07-.21Zm-1.34,4.8h3.89v.34h-3.89v-.34Zm1.81,5.11c0,.19-.04,.36-.11,.5-.07,.15-.18,.26-.31,.34-.14,.08-.29,.12-.47,.12s-.34-.04-.48-.11c-.14-.07-.24-.18-.32-.32-.08-.14-.11-.29-.11-.47v-.76c0-.19,.04-.36,.11-.5,.07-.14,.18-.26,.31-.34,.14-.08,.29-.12,.47-.12,.15,0,.28,.03,.41,.09,.12,.06,.23,.15,.31,.27,.08,.12,.14,.25,.17,.4h-.39c-.02-.09-.06-.16-.11-.22-.05-.06-.11-.11-.18-.14-.07-.03-.14-.05-.21-.05-.11,0-.2,.03-.28,.08-.08,.05-.14,.12-.19,.21s-.07,.2-.07,.32v.76c0,.11,.02,.21,.07,.29,.04,.08,.11,.15,.19,.19,.08,.05,.18,.07,.28,.07s.2-.02,.28-.07c.08-.05,.14-.12,.19-.21,.04-.09,.07-.2,.07-.32v-.11h-.52v-.34h.89v.45Zm2.76,.93l-.19-.56h-1.03l-.19,.56h-.39l.94-2.56h.31l.94,2.56h-.39Zm.98-4.96h-.35v-2.56h.34l.75,1.69,.75-1.69h.34v2.56h-.35v-1.77l-.61,1.41h-.25l-.61-1.38v1.73Zm1.96,4.96l-.55-1.08h-.54v1.08h-.36v-2.56h1.02c.15,0,.28,.03,.39,.09,.11,.06,.2,.15,.26,.26,.06,.11,.09,.24,.09,.39s-.03,.28-.09,.39c-.06,.11-.15,.2-.26,.26-.04,.02-.08,.04-.13,.05l.59,1.12h-.43Zm.65-9.92h-.35v-1.77l-.61,1.41h-.25l-.61-1.38v1.73h-.35v-2.56h.34l.75,1.69,.75-1.69h.34v2.56Zm.57,2.4h1.65v.34h-1.29v.78h1.09v.34h-1.09v.76h1.29v.34h-1.65v-2.56Zm1.87,5.3h-.72v2.22h-.36v-2.22h-.72v-.34h1.81v.34Zm2.48,2.22l-.19-.56h-1.03l-.19,.56h-.39l.94-2.56h.31l.94,2.56h-.39Zm-1.35-2.95v-.35h1.29v.35h-1.29Zm1.33-2.01l-.55-1.08h-.54v1.08h-.36v-2.56h1.02c.15,0,.28,.03,.39,.09,.11,.06,.2,.15,.26,.26,.06,.11,.09,.24,.09,.39s-.03,.28-.09,.39c-.06,.11-.15,.2-.26,.26-.04,.02-.08,.04-.13,.05l.59,1.12h-.43Z"/><polygon class="cls-1" points="19.89 18.49 20.68 18.49 20.29 17.33 19.89 18.49"/><path class="cls-1" d="M15.32,17.78c.03-.06,.04-.13,.04-.21s-.01-.15-.04-.21c-.03-.06-.07-.11-.12-.14s-.11-.05-.18-.05h-.67v.8h.67c.07,0,.13-.02,.18-.05,.05-.03,.09-.08,.12-.14Z"/><polygon class="cls-1" points="11.38 18.49 12.18 18.49 11.78 17.33 11.38 18.49"/><path class="cls-1" d="M20.86,12.82c.03-.06,.04-.13,.04-.21s-.01-.15-.04-.21c-.03-.06-.07-.11-.12-.14-.05-.03-.11-.05-.18-.05h-.67v.8h.67c.07,0,.13-.02,.18-.05,.05-.03,.09-.08,.12-.14Z"/></g></g></svg>