<?xml version="1.0" encoding="UTF-8"?><svg id="Layer_2" xmlns="http://www.w3.org/2000/svg" viewBox="0 0 34.82 13.24"><defs><style>.cls-1{fill:#fff;}</style></defs><g id="logos"><g><polygon class="cls-1" points="1.09 .03 1.34 .03 1.34 2.25 1.14 2.25 1.14 1.3 1.17 .4 .8 2.21 .59 2.21 .2 .4 .23 1.3 .23 2.25 .03 2.25 .03 .03 .28 .03 .69 1.9 1.09 .03"/><g><path class="cls-1" d="M2.47,.63c0-.18-.01-.3-.05-.37-.03-.07-.09-.11-.19-.11s-.16,.04-.19,.11c-.04,.07-.05,.2-.05,.37v.96c0,.2,.01,.34,.04,.39,.02,.06,.05,.09,.08,.11,.03,.02,.07,.02,.12,.02s.09,0,.12-.02c.03-.02,.06-.05,.08-.11,.03-.06,.04-.19,.04-.39V.63Zm-.7,.02c0-.27,.04-.44,.12-.53,.08-.08,.2-.12,.37-.12s.28,.05,.34,.14c.04,.06,.07,.13,.08,.21,.01,.08,.02,.18,.02,.3v.95c0,.19-.01,.33-.04,.41-.03,.08-.06,.14-.09,.17-.07,.07-.18,.1-.33,.1-.22,0-.35-.08-.41-.24-.04-.1-.06-.25-.06-.44V.65Z"/><path class="cls-1" d="M3.59,1.14h-.24v.96h.23c.07,0,.13-.02,.16-.06,.03-.04,.05-.1,.06-.19,0-.09,0-.16,0-.22v-.1c0-.12-.02-.22-.05-.28-.03-.06-.09-.1-.18-.1m-.07-.94h-.17V.98h.2c.07,0,.11,0,.14-.02,.02-.01,.04-.03,.05-.04,.03-.05,.04-.16,.04-.31s0-.25-.03-.3c-.02-.04-.04-.07-.07-.09-.03-.02-.08-.03-.16-.03M3.13,.03h.38c.16,0,.27,.02,.34,.07,.07,.05,.12,.13,.13,.24,0,.05,.01,.11,.01,.19v.03c0,.14-.01,.25-.03,.33-.02,.08-.07,.13-.14,.17,.08,.03,.13,.1,.16,.19,.03,.09,.04,.21,.04,.35v.04c0,.22-.04,.37-.1,.47-.06,.1-.18,.15-.36,.15h-.45V.03Z"/><rect class="cls-1" x="4.48" y=".03" width=".22" height="2.23"/><polygon class="cls-1" points="5.2 .03 5.42 .03 5.42 2.1 5.89 2.1 5.89 2.25 5.2 2.25 5.2 .03"/><polygon class="cls-1" points="6.15 .03 6.84 .03 6.84 .17 6.37 .17 6.37 1.04 6.81 1.04 6.81 1.2 6.37 1.2 6.37 2.1 6.84 2.1 6.84 2.25 6.15 2.25 6.15 .03"/><path class="cls-1" d="M8.46,.57c0-.11,0-.19-.02-.25-.01-.05-.03-.09-.06-.11-.03-.02-.08-.03-.14-.03h-.25v.84h.23c.08,0,.13-.01,.15-.03,.03-.02,.05-.06,.06-.11,.01-.05,.02-.15,.02-.31v-.02ZM7.77,.03h.45c.18,0,.3,.03,.36,.1,.05,.05,.07,.11,.09,.18,.01,.07,.02,.17,.02,.3s-.02,.24-.05,.32c-.04,.08-.1,.14-.19,.16,.03,0,.06,.01,.09,.03,.02,.01,.05,.04,.06,.07,.06,.1,.09,.34,.09,.72,0,.16,0,.25,0,.27,0,.02,.01,.05,.03,.09h-.22s-.03-.07-.03-.14c0-.07,0-.18,0-.34v-.25c0-.16-.01-.25-.03-.3-.02-.04-.09-.06-.2-.06h-.23s0,1.09,0,1.09h-.22V.03Z"/><path class="cls-1" d="M9.74,1.65l-.24-1.26h0l-.22,1.26h.47ZM9.38,.03h.23l.47,2.23h-.21l-.09-.45h-.52l-.08,.45h-.21L9.38,.03Z"/><path class="cls-1" d="M11.04,.03h.22V1.68c0,.21-.03,.36-.09,.46-.06,.09-.18,.14-.36,.14s-.3-.05-.37-.14c-.06-.1-.1-.25-.1-.46V.03h.22V1.68c0,.15,0,.26,.02,.31,.03,.09,.1,.14,.21,.14,.09,0,.15-.02,.19-.07,.04-.04,.06-.17,.06-.38V.03Z"/><polygon class="cls-1" points="12.77 .03 13.02 .03 13.02 2.25 12.82 2.25 12.82 1.3 12.86 .4 12.48 2.21 12.27 2.21 11.88 .4 11.92 1.3 11.92 2.25 11.72 2.25 11.72 .03 11.96 .03 12.38 1.9 12.77 .03"/><polygon class="cls-1" points="14.25 .03 14.46 .03 13.92 1.13 14.5 2.25 14.27 2.25 13.72 1.17 13.72 2.25 13.5 2.25 13.5 .03 13.72 .03 13.72 1.12 14.25 .03"/><path class="cls-1" d="M15.38,.63c0-.18-.01-.3-.05-.37-.03-.07-.09-.11-.19-.11s-.16,.04-.19,.11c-.04,.07-.05,.2-.05,.37v.96c0,.2,.01,.34,.04,.39,.02,.06,.05,.09,.08,.11,.03,.02,.07,.02,.12,.02s.09,0,.12-.02c.03-.02,.06-.05,.08-.11,.03-.06,.04-.19,.04-.39V.63Zm-.7,.02c0-.27,.04-.44,.12-.53,.08-.08,.2-.12,.37-.12s.28,.05,.34,.14c.04,.06,.07,.13,.08,.21,.01,.08,.02,.18,.02,.3v.95c0,.19-.01,.33-.04,.41-.03,.08-.06,.14-.09,.17-.07,.07-.18,.1-.33,.1-.22,0-.35-.08-.41-.24-.04-.1-.06-.25-.06-.44V.65Z"/><polygon class="cls-1" points="16.82 .03 17.01 .03 17.01 2.25 16.84 2.25 16.24 .58 16.25 1.18 16.25 2.25 16.04 2.25 16.04 .03 16.2 .03 16.84 1.75 16.82 .98 16.82 .03"/><polygon class="cls-1" points="17.43 .03 18.15 .03 18.15 .16 17.64 2.1 18.14 2.1 18.14 2.25 17.42 2.25 17.42 2.1 17.92 .17 17.43 .17 17.43 .03"/><polygon class="cls-1" points="18.52 .03 19.21 .03 19.21 .17 18.74 .17 18.74 1.04 19.18 1.04 19.18 1.2 18.74 1.2 18.74 2.1 19.2 2.1 19.2 2.25 18.52 2.25 18.52 .03"/><path class="cls-1" d="M20.26,.7v-.06c0-.16-.01-.28-.04-.35-.03-.07-.09-.1-.18-.1h-.25V1.22h.23c.09,0,.15-.04,.18-.11,.03-.07,.05-.21,.05-.41M19.57,.03h.46c.11,0,.19,.02,.25,.05,.06,.03,.1,.07,.12,.11,.04,.08,.06,.15,.06,.22,0,.07,.01,.16,.01,.26v.02c0,.19-.01,.33-.04,.41-.03,.08-.06,.14-.1,.17-.07,.07-.18,.11-.33,.11h-.22v.87h-.22V.03Z"/><polygon class="cls-1" points="20.65 .03 21.39 .03 21.39 .17 21.14 .17 21.14 2.25 20.92 2.25 20.92 .17 20.65 .17 20.65 .03"/><polygon class="cls-1" points="21.69 .03 22.38 .03 22.38 .17 21.91 .17 21.91 1.04 22.35 1.04 22.35 1.2 21.91 1.2 21.91 2.1 22.37 2.1 22.37 2.25 21.69 2.25 21.69 .03"/><path class="cls-1" d="M32.66,.02h-6.9V3.09c.57-.41,1.36-.56,1.72-.49-.6,.08-1.63,.75-2.06,1.21h0s-1.38,1.38-1.38,1.38h1.72v3.45h6.9l2.15-4.31L32.66,.02Zm-1.29,6.9h-3.88V1.75h3.88l1.29,2.59-1.29,2.59Z"/><polygon class="cls-1" points="1.64 13.24 0 4.05 1.45 4.05 2.61 11.22 3.77 4.05 5.22 4.05 3.55 13.24 1.64 13.24"/><rect class="cls-1" x="6.09" y="5.41" width="1.17" height="7.75"/><rect class="cls-1" x="6.09" y="5.41" width="1.17" height="7.75"/><polygon class="cls-1" points="8.57 13.16 8.57 5.41 11.89 5.41 11.89 6.58 9.73 6.58 9.73 8.7 11.31 8.7 11.31 9.87 9.73 9.87 9.73 11.98 11.89 11.98 11.89 13.16 8.57 13.16"/><polygon class="cls-1" points="8.57 13.16 8.57 5.41 11.89 5.41 11.89 6.58 9.73 6.58 9.73 8.7 11.31 8.7 11.31 9.87 9.73 9.87 9.73 11.98 11.89 11.98 11.89 13.16 8.57 13.16"/><path class="cls-1" d="M14.8,5.41c.65,0,1.13,.18,1.43,.54,.27,.31,.4,.75,.4,1.31v1.13c0,.55-.21,1.01-.62,1.39l.87,3.38h-1.26l-.71-2.92h-.78v2.92h-1.17V5.41h1.84Zm.7,1.87c0-.45-.22-.67-.67-.67h-.7v2.48h.7c.19,0,.34-.07,.47-.2,.13-.13,.19-.29,.19-.48v-1.13Z"/><path class="cls-1" d="M14.8,5.41c.65,0,1.13,.18,1.43,.54,.27,.31,.4,.75,.4,1.31v1.13c0,.55-.21,1.01-.62,1.39l.87,3.38h-1.26l-.71-2.92h-.78v2.92h-1.17V5.41h1.84Zm.7,1.87c0-.45-.22-.67-.67-.67h-.7v2.48h.7c.19,0,.34-.07,.47-.2,.13-.13,.19-.29,.19-.48v-1.13Z"/><path class="cls-1" d="M22.37,11.04c0,.61-.21,1.12-.64,1.56-.43,.43-.94,.65-1.54,.65h-2.18V4.04h2.18c.61,0,1.12,.22,1.54,.65,.42,.43,.63,.95,.63,1.55v4.8Zm-2.97,.83h.84c.22,0,.41-.08,.56-.24,.15-.16,.23-.35,.23-.56V6.26c0-.22-.08-.41-.23-.56-.15-.16-.34-.23-.55-.23h-.84v6.41Z"/></g></g></g></svg>