<?xml version="1.0" encoding="UTF-8"?><svg id="Layer_2" xmlns="http://www.w3.org/2000/svg" viewBox="0 0 42.1 8.06"><defs><style>.cls-1{fill:#fff;}</style></defs><g id="logos"><g><g><path class="cls-1" d="M5.33,6.95H.44c-.24,0-.44,.2-.44,.44s.2,.44,.44,.44H5.33c.24,0,.44-.2,.44-.44s-.2-.44-.44-.44Z"/><path class="cls-1" d="M5.33,.31H.44c-.24,0-.44,.2-.44,.44s.2,.44,.44,.44H5.33c.24,0,.44-.2,.44-.44s-.2-.44-.44-.44Z"/><path class="cls-1" d="M.44,4.51H3.05c.24,0,.44-.2,.44-.44s-.2-.44-.44-.44H.44c-.24,0-.44,.2-.44,.44s.2,.44,.44,.44Z"/></g><path class="cls-1" d="M14.14,1.82c.17,.17,.45,.17,.63,0,.08-.08,.13-.2,.13-.31,0-.12-.05-.23-.13-.31-1.59-1.57-4.2-1.58-5.81-.02-.78,.76-1.22,1.77-1.22,2.85,0,1.08,.42,2.09,1.2,2.86,.78,.76,1.81,1.19,2.92,1.19s2.12-.41,2.89-1.16c.17-.17,.18-.45,0-.62h0c-.17-.17-.45-.18-.63,0-1.27,1.23-3.32,1.22-4.57-.02-.61-.6-.94-1.39-.93-2.23,0-.84,.34-1.63,.95-2.22,1.27-1.23,3.32-1.22,4.57,.02Z"/><path class="cls-1" d="M22.18,.31c-.24,0-.44,.2-.44,.44V3.63h-4.45c-.24,0-.44,.2-.44,.44s.2,.44,.44,.44h4.45v2.88c0,.24,.2,.44,.44,.44s.44-.2,.44-.44V.75c0-.24-.2-.44-.44-.44Z"/><path class="cls-1" d="M29.42,.04c-2.2,0-4,1.79-4,4s1.79,4,4,4,4-1.79,4-4S31.63,.04,29.42,.04Zm3.11,4c0,1.72-1.4,3.11-3.11,3.11s-3.11-1.4-3.11-3.11,1.4-3.12,3.11-3.12,3.11,1.4,3.11,3.12Z"/><path class="cls-1" d="M38.95,3.6c-2.15-.31-2.39-.92-2.39-1.34,0-.73,1.07-1.34,2.33-1.34s2.33,.61,2.33,1.34c0,.24,.2,.44,.44,.44s.44-.2,.44-.44c0-1.25-1.41-2.22-3.21-2.22s-3.21,.98-3.21,2.22c0,1.58,1.8,2.02,3.15,2.22,1.59,.23,2.4,.69,2.39,1.37,0,.32-.22,.63-.62,.88-.45,.28-1.06,.44-1.72,.44-1.26-.01-2.32-.63-2.32-1.36,0-.12-.04-.23-.13-.31-.08-.08-.19-.13-.31-.13-.24,0-.44,.2-.44,.44,0,1.24,1.39,2.23,3.2,2.25h.03c.81,0,1.58-.2,2.17-.58,.66-.42,1.02-.99,1.03-1.62,.01-1.19-1.05-1.95-3.15-2.25Z"/></g></g></svg>