<?xml version="1.0" encoding="UTF-8"?><svg id="Layer_2" xmlns="http://www.w3.org/2000/svg" viewBox="0 0 30.1 25.79"><defs><style>.cls-1{fill:#fff;}</style></defs><g id="logos"><g><path class="cls-1" d="M5.1,8.51c.42-1.57,.84-3.16,1.26-4.75h-1.06l-.04,.15-.1-.04c-.09-.04-.18-.06-.28-.08-.1-.02-.21-.03-.34-.03-.51,0-1,.18-1.46,.55-.46,.36-.77,.81-.89,1.32L.94,10.32c-.15,.53-.09,.95,.17,1.3,.26,.35,.63,.52,1.13,.52,.25,0,.49-.04,.71-.11l.17-.06-.39,1.42c-.06,.25-.2,.44-.4,.57-.4,.25-.81,.24-1.07-.01-.14-.14-.18-.34-.11-.6l.05-.17H.15l-.07,.22c-.16,.52-.1,.93,.19,1.26,.3,.33,.68,.52,1.13,.57,.46,.04,.93-.08,1.39-.37,.46-.29,.8-.8,1-1.51,.44-1.61,.87-3.23,1.3-4.84Zm-1.91,2.35c-.19,.15-.39,.22-.6,.22s-.37-.08-.49-.24c-.12-.16-.15-.35-.09-.57l1.25-4.7c.06-.25,.2-.44,.4-.56,.4-.23,.81-.22,1.05,.01,.13,.13,.16,.33,.1,.59l-1.25,4.7c-.06,.21-.19,.39-.38,.53Z"/><path class="cls-1" d="M8.7,3.76h-1.06l-1.78,6.56c-.14,.51-.08,.93,.18,1.29,.27,.36,.64,.53,1.15,.53,.25,0,.5-.05,.73-.14,.24-.09,.46-.21,.66-.36l.07-.05,.06,.06c.29,.32,.66,.48,1.13,.48,.23,0,.47-.05,.71-.13l.17-.06-2.4,8.94c-.14,.53-.08,.95,.18,1.3,.27,.35,.64,.52,1.15,.52,.36,0,.73-.1,1.08-.29,.11-.06,.22-.13,.34-.22l.07-.05,.06,.06c.29,.28,.64,.45,1.05,.49,.45,.05,.92-.07,1.38-.36,.46-.28,.8-.78,1-1.5l.03-.11h-1.06l-.04,.16c-.06,.25-.19,.44-.38,.56-.38,.23-.8,.23-1.05-.01-.14-.13-.18-.33-.11-.59l.28-1.11c.06-.23,.19-.41,.38-.54,.19-.12,.38-.19,.57-.19h1.18l.29-1.09h-1.1c-.11,0-.25-.04-.33-.25-.05-.14-.06-.31-.02-.5l.26-1c.06-.25,.2-.44,.4-.57,.4-.25,.81-.25,1.07,.01,.14,.14,.18,.34,.11,.6l-.08,.25h1.05l.09-.3c.11-.34,.11-.64,0-.9-.11-.26-.28-.48-.5-.62-.23-.15-.51-.25-.83-.28-.32-.04-.63,0-.94,.11-.31,.11-.6,.31-.86,.59s-.46,.68-.59,1.17l-.26,1c-.13,.37-.12,.68,.02,.96l.04,.07-.07,.05c-.2,.15-.39,.34-.56,.59-.17,.25-.31,.55-.4,.89-.06,.19-.11,.38-.16,.56-.05,.18-.09,.36-.13,.55-.02,.07-.03,.12-.05,.17v.02c-.08,.13-.18,.25-.3,.34-.19,.15-.39,.22-.6,.22-.22,0-.39-.08-.5-.24-.11-.16-.14-.35-.07-.57l2.36-8.89,.1,.05c.17,.08,.36,.13,.56,.14,.45,.04,.92-.08,1.38-.36,.46-.28,.8-.78,1-1.5,.04-.15,.08-.3,.11-.44,.04-.14,.08-.29,.11-.44,.05-.2,.07-.4,.05-.59-.02-.19-.09-.35-.23-.48l-1.56-1.48c-.11-.1-.12-.26-.05-.47l.2-.79c.06-.25,.2-.44,.4-.56,.4-.23,.81-.22,1.05,.01,.13,.13,.16,.33,.1,.59l-.2,.74h1.06c.03-.13,.06-.25,.1-.36,.04-.13,.07-.27,.11-.42,.11-.34,.11-.64,0-.89-.11-.26-.28-.47-.51-.63-.23-.16-.51-.26-.81-.3-.31-.04-.62,0-.92,.12-.31,.12-.6,.32-.86,.6-.26,.28-.46,.67-.59,1.14l-.23,.85c-.05,.22-.07,.43-.05,.64,.02,.2,.09,.36,.23,.5l1.54,1.45c.16,.22,.13,.38,.08,.48l-.19,.78c-.06,.25-.19,.44-.38,.56-.38,.23-.79,.23-1.05-.01-.14-.13-.18-.33-.11-.59l.28-1.08h-1.06l-.29,1.13c-.04,.21-.16,.4-.35,.55-.19,.15-.39,.23-.6,.23-.24,0-.42-.08-.52-.24-.1-.15-.13-.34-.08-.56l1.76-6.55h-1.09c-.29,1.07-.58,2.16-.86,3.24-.28,1.08-.58,2.21-.88,3.35-.06,.21-.19,.39-.37,.54-.19,.15-.39,.22-.6,.22-.22,0-.39-.08-.5-.24-.11-.16-.14-.35-.07-.57l1.73-6.54Z"/><path class="cls-1" d="M7.78,14.31l-.04,.15-.1-.04c-.09-.04-.18-.06-.28-.08-.1-.02-.21-.03-.34-.03-.51,0-1,.18-1.46,.55-.47,.37-.77,.81-.89,1.32l-1.25,4.7c-.14,.53-.09,.95,.17,1.3,.26,.35,.63,.52,1.13,.52,.26,0,.49-.04,.71-.11l.17-.06-.39,1.42c-.06,.25-.2,.44-.4,.57-.4,.25-.81,.24-1.07-.01-.14-.14-.18-.34-.11-.6l.05-.17h-1.05l-.07,.22c-.16,.52-.1,.93,.19,1.26,.3,.33,.68,.52,1.13,.57,.46,.05,.93-.08,1.39-.37,.46-.29,.8-.8,1-1.51,.44-1.61,.87-3.23,1.3-4.84,.42-1.57,.84-3.16,1.26-4.75h-1.06Zm-.49,1.86l-1.25,4.7c-.06,.21-.19,.39-.38,.53-.19,.15-.39,.22-.6,.22s-.37-.08-.49-.24c-.12-.16-.15-.35-.09-.57l1.25-4.7c.06-.25,.2-.44,.4-.56,.4-.23,.81-.22,1.05,.01,.13,.13,.16,.33,.1,.59Z"/><polygon class="cls-1" points="17.65 14.32 17.25 15.84 18.3 15.84 18.71 14.32 17.65 14.32"/><path class="cls-1" d="M22.97,14.61c-.23-.16-.51-.26-.81-.3-.31-.04-.62,0-.92,.12-.31,.12-.6,.32-.86,.6-.26,.28-.46,.67-.59,1.14l-.23,.85c-.05,.22-.07,.43-.05,.64,.02,.2,.09,.36,.23,.5l1.54,1.45c.16,.22,.13,.38,.08,.48l-.19,.78c-.06,.25-.19,.44-.38,.56-.38,.23-.8,.23-1.05-.01-.14-.13-.18-.33-.11-.59l.28-1.08h-1.06l-.33,1.27-.02-.02c-.07,.15-.18,.28-.32,.38-.19,.15-.39,.22-.6,.22-.22,0-.39-.08-.5-.24-.11-.16-.14-.35-.07-.57l1.01-3.78h-1.07l-1.04,3.83c-.14,.53-.08,.96,.18,1.31,.27,.36,.64,.53,1.15,.53,.36,0,.72-.1,1.08-.3,.11-.06,.22-.14,.35-.23l.07-.05,.06,.06c.29,.3,.65,.47,1.08,.51,.45,.05,.92-.07,1.38-.36,.46-.28,.8-.78,1-1.5,.04-.15,.08-.3,.11-.44,.04-.14,.08-.29,.11-.44,.05-.2,.07-.4,.05-.59-.02-.19-.09-.35-.23-.48l-1.56-1.48c-.11-.1-.12-.26-.05-.47l.2-.79c.06-.25,.2-.44,.4-.56,.4-.23,.81-.22,1.05,.01,.13,.13,.16,.33,.1,.59l-.2,.74h1.06c.03-.13,.06-.25,.1-.36,.04-.13,.08-.27,.11-.42,.11-.34,.11-.64,0-.89-.11-.26-.28-.47-.51-.63Z"/><polygon class="cls-1" points="21.15 24.74 21.42 23.73 7.56 23.73 7.29 24.74 21.15 24.74"/><path class="cls-1" d="M19.8,0h-1.06l-.46,1.71H3.26l-.27,1.01h15.05l-2.05,7.61c-.14,.53-.08,.95,.18,1.3,.27,.35,.64,.52,1.15,.52,.36,0,.73-.1,1.08-.29,.11-.06,.21-.12,.33-.21l.07-.05,.06,.07c.27,.33,.63,.48,1.11,.48,.25,0,.5-.05,.73-.14,.24-.09,.46-.21,.66-.36l.07-.05,.06,.06c.29,.32,.66,.48,1.13,.48,.19,0,.39-.03,.6-.09l.16-.05-.04,.14c.57-.03,1.11-.14,1.62-.33,.55-.2,1.06-.49,1.53-.85,.46-.36,.86-.8,1.19-1.29,.33-.49,.58-1.04,.74-1.64l1.14-4.26h-1.06l-1.15,4.23c-.15,.62-.45,1.18-.89,1.68-.43,.49-.95,.87-1.53,1.12l-.18,.08,1.9-7.1h-1.06l-1.87,6.92c-.06,.08-.11,.14-.18,.19-.18,.15-.38,.23-.59,.23-.24,0-.42-.08-.53-.24-.11-.16-.14-.35-.07-.57l1.19-4.52h-1.06l-1.21,4.57c-.06,.21-.19,.39-.37,.54-.19,.15-.39,.22-.6,.22-.22,0-.39-.08-.5-.24-.11-.16-.14-.35-.07-.57l.77-2.89c.19-.74,.61-1.36,1.23-1.85,.6-.47,1.31-.73,2.09-.76l.26-1.04c-1.15,.02-2.15,.34-2.95,.96-.83,.64-1.42,1.56-1.73,2.73l-.77,2.88c-.06,.22-.19,.4-.37,.55-.19,.15-.39,.23-.6,.23-.22,0-.39-.08-.5-.24-.11-.16-.14-.35-.07-.57l2.01-7.58h10.74l.27-1.01h-10.75l.46-1.71Z"/></g></g></svg>