<?xml version="1.0" encoding="UTF-8"?><svg id="Layer_2" xmlns="http://www.w3.org/2000/svg" xmlns:xlink="http://www.w3.org/1999/xlink" viewBox="0 0 145.78 158.28"><defs><style>.cls-1{fill:url(#Unbenannter_Verlauf_15);}.cls-2{fill:#fff;}.cls-3{fill:none;stroke:#fff;stroke-miterlimit:10;stroke-width:.5px;}</style><radialGradient id="Unbenannter_Verlauf_15" cx="92.74" cy="118.41" fx="92.74" fy="118.41" r="15.31" gradientUnits="userSpaceOnUse"><stop offset="0" stop-color="#fff"/><stop offset=".15" stop-color="#fff" stop-opacity=".77"/><stop offset=".32" stop-color="#fff" stop-opacity=".54"/><stop offset=".48" stop-color="#fff" stop-opacity=".35"/><stop offset=".64" stop-color="#fff" stop-opacity=".2"/><stop offset=".78" stop-color="#fff" stop-opacity=".09"/><stop offset=".9" stop-color="#fff" stop-opacity=".02"/><stop offset="1" stop-color="#fff" stop-opacity="0"/></radialGradient></defs><g id="logos"><path class="cls-3" d="M117.91,87.11C117.52,86.8,1.35,1.31,1.35,1.31L68.48,86.09,10.44,49.91l43.44,59.94-32.22-16.27,41.38,50.99c1.45,1.63,3.02,3.2,4.77,4.61,17.14,13.84,42.27,11.14,56.11-5.98,13.83-17.14,11.12-42.28-6.03-56.09Z"/><path class="cls-1" d="M92.74,103.1c-.12,0-.25,0-.37,0-8.43,.2-15.13,7.23-14.93,15.67,.1,4.09,1.78,7.89,4.74,10.71,2.96,2.82,6.7,4.25,10.93,4.22,4.09-.1,7.89-1.78,10.71-4.74,2.82-2.96,4.32-6.84,4.22-10.93-.2-8.31-7.03-14.94-15.3-14.94Z"/><rect class="cls-2" x="95.71" y="118.16" width="50.07" height=".5"/></g></svg>